<svg xmlns="http://www.w3.org/2000/svg" viewBox="0 0 443.494 512"><path fill="#da1a21" d="M402.402 140.807v25.962c0 16.582-25.983 16.873-25.983 0V89.697c0-26.295-41.086-26.644-41.086 0v51.12c0 16.488-25.983 16.836-25.983 0V54.535c0-26.29-41.085-26.644-41.085 0v32.081c0 16.323-25.973 17.148-25.973 0V19.611c0-25.545-41.09-26.744-41.09 0v67.005c0 16.704-25.979 16.862-25.979 0V54.535c0-26.205-41.09-26.67-41.09 0v80.21c0 16.588-25.978 16.895-25.978 0V89.703c0-26.321-41.086-26.606-41.086 0V252.84c0 16.55-25.983 16.878-25.983 0V140.807c0-25.45-41.086-26.612-41.086 0V371.2c0 26.31 41.086 26.654 41.086 0v-22.75c0-16.582 25.983-16.872 25.983 0v73.86c0 26.295 41.086 26.643 41.086 0v-47.903c0-16.487 25.983-16.835 25.983 0v83.065c0 26.289 41.085 26.643 41.085 0v-28.869c0-16.323 25.978-17.147 25.978 0v63.787c0 25.545 41.091 26.744 41.091 0v-63.787c0-16.704 25.978-16.862 25.978 0v28.863c0 26.205 41.091 26.67 41.091 0v-76.993c0-16.587 25.978-16.894 25.978 0v41.831c0 26.322 41.086 26.607 41.086 0V265.596c0-16.55 25.983-16.878 25.983 0v105.602c0 25.45 41.086 26.607 41.086 0V140.807c-.006-26.31-41.092-26.654-41.092 0Z"/><path fill="#ed2524" d="M222.069 507.095c-8.772.175-17.655-4.67-17.655-14.695v-63.787c0-20.387-32.409-20.546-32.409 0v28.862c0 21.603-34.654 21.798-34.654 0v-83.064c0-19.763-32.414-20.593-32.414 0v47.903c0 21.618-34.65 21.835-34.65 0v-73.86c0-20.434-32.414-20.598-32.414 0v22.75c0 21.364-34.654 22.077-34.654 0V140.812c0-20.667 34.654-21.703 34.654 0v112.033c0 20.477 32.414 20.588 32.414 0V89.707c0-21.343 34.65-21.84 34.65 0v45.044c0 20.492 32.409 20.593 32.409 0V54.545c0-20.931 34.66-21.687 34.66 0v32.081c0 20.435 32.408 20.678 32.408 0V19.621c0-20.958 34.66-21.36 34.66 0v67.005c0 20.202 32.41 20.789 32.41 0v-32.08c0-21.577 34.654-21.846 34.654 0v86.282c0 20.519 32.414 20.503 32.414 0v-51.12c0-20.996 34.65-21.656 34.65 0v77.071c0 20.53 32.418 20.588 32.418 0v-25.962c0-21.555 34.655-21.856 34.655 0V371.21c0 21.153-34.65 21.38-34.65 0V265.612c0-20.36-32.419-20.583-32.419 0v156.702c0 21.676-34.654 21.803-34.654 0v-41.826c0-20.366-32.41-20.635-32.41 0v76.993c0 21.047-34.66 21.93-34.66 0v-28.863c0-20.434-32.408-20.64-32.408 0v63.787c0 9.575-8.45 14.521-17.005 14.69Z"/><path fill="#da1a21" d="M204.33 88.323c-1.739 18.934-32.325 18.151-32.325-1.707V54.535c0-21.687-34.66-20.937-34.66 0v80.205c0 20.593-32.409 20.498-32.409 0V89.697c0-21.835-34.649-21.339-34.649 0v163.138c0 20.587-32.414 20.476-32.414 0V140.802c0-21.703-34.654-20.667-34.654 0v230.391c0 22.078 34.654 21.365 34.654 0v-22.749c0-20.603 32.414-20.44 32.414 0v73.86c0 21.834 34.65 21.617 34.65 0V374.4c0-20.593 32.413-19.764 32.413 0v83.064c0 21.798 34.655 21.608 34.655 0v-28.863c0-20.545 32.409-20.387 32.409 0v63.787c0 10.025 8.883 14.87 17.655 14.696 8.555-.169 17.005-5.115 17.005-14.696v-63.787c0-20.64 32.409-20.434 32.409 0v28.863c0 21.93 34.66 21.047 34.66 0v-76.993c0-20.635 32.408-20.37 32.408 0v41.826c0 21.798 34.655 21.676 34.655 0V265.596c0-20.582 32.42-20.36 32.42 0v105.597c0 21.38 34.649 21.153 34.649 0V237.917c-99.81-8.096-187.14-66.651-235.945-149.594Z"/><path fill="#c7161d" d="M345.046 309.652c-121.09 0-227.374-74.583-274.759-179.61V252.84c0 20.588-32.414 20.477-32.414 0V140.807c0-21.703-34.654-20.667-34.654 0v230.391c0 22.078 34.654 21.365 34.654 0V348.45c0-20.603 32.414-20.44 32.414 0v73.86c0 21.834 34.65 21.618 34.65 0v-47.903c0-20.593 32.414-19.763 32.414 0v83.064c0 21.798 34.654 21.608 34.654 0v-28.863c0-20.545 32.409-20.386 32.409 0v63.787c0 10.025 8.883 14.87 17.655 14.696 8.555-.169 17.005-5.115 17.005-14.696v-63.787c0-20.64 32.409-20.434 32.409 0v28.863c0 21.93 34.66 21.048 34.66 0v-76.992c0-20.636 32.409-20.371 32.409 0v41.825c0 21.798 34.654 21.676 34.654 0V308.278a292.203 292.203 0 0 1-28.16 1.374Zm60.574-6.32v67.872c0 21.38 34.65 21.153 34.65 0v-77.416a295.473 295.473 0 0 1-34.65 9.544Z"/><path fill="#b01117" d="M277.507 393.276C156.823 393.276 50.836 319.2 3.22 214.73v156.475c0 22.077 34.654 21.364 34.654 0v-22.75c0-20.603 32.414-20.44 32.414 0v73.86c0 21.835 34.65 21.618 34.65 0V374.41c0-20.593 32.413-19.763 32.413 0v83.064c0 21.798 34.655 21.608 34.655 0v-28.862c0-20.546 32.409-20.387 32.409 0V492.4c0 10.024 8.883 14.87 17.655 14.695 8.555-.169 17.005-5.115 17.005-14.695v-63.787c0-20.641 32.409-20.435 32.409 0v28.862c0 21.93 34.66 21.048 34.66 0V391.86a293.425 293.425 0 0 1-28.636 1.416Zm128.113-29.37v7.298c0 21.38 34.65 21.153 34.65 0v-26.866a304.5 304.5 0 0 1-34.65 19.568Zm-67.068 22.944v35.464c0 21.797 34.654 21.676 34.654 0v-45.06a296.025 296.025 0 0 1-34.654 9.596Z"/><path fill="#fff" d="m197.006 166.277 112.46 64.929c19.088 11.018 19.088 38.57 0 49.593l-112.46 64.929c-19.087 11.023-42.951-2.753-42.951-24.794V191.07c.005-22.035 23.864-35.812 42.95-24.794Z"/></svg>